<svg version="1.1" id="Layer_1" xmlns="http://www.w3.org/2000/svg" xmlns:xlink="http://www.w3.org/1999/xlink" x="0px" y="0px"
	 width="100%" viewBox="0 0 453 191" enable-background="new 0 0 453 191" xml:space="preserve">
<path fill="#000000" opacity="1.000000" stroke="none" 
	d="
M287.000000,192.000000 
	C191.333374,192.000000 96.166733,192.000000 1.000077,192.000000 
	C1.000051,128.333389 1.000051,64.666779 1.000026,1.000128 
	C151.999893,1.000085 302.999786,1.000085 453.999756,1.000043 
	C453.999817,64.666534 453.999817,128.333069 453.999908,191.999802 
	C398.500000,192.000000 343.000000,192.000000 287.000000,192.000000 
M249.629196,77.996544 
	C239.968002,84.542686 228.487534,88.782333 220.990555,99.927673 
	C230.098602,102.964714 238.011139,98.065193 245.506287,99.286156 
	C246.378403,105.721291 247.608612,111.677551 247.910904,117.680542 
	C248.535385,130.082169 248.670120,142.508575 248.993210,154.925125 
	C249.034927,156.528793 248.998917,158.134476 248.998917,160.001083 
	C250.824524,160.001083 252.128952,160.001083 253.433380,160.001083 
	C286.096771,160.001083 318.760162,160.002960 351.423553,159.994339 
	C352.745697,159.994003 354.068634,159.908920 355.389893,159.839279 
	C366.871735,159.234238 378.354095,158.225922 389.834473,158.248444 
	C393.447571,158.255524 395.817596,157.654465 398.310577,155.286880 
	C402.102844,151.685318 406.132843,148.323090 410.181763,145.005478 
	C415.533752,140.620087 420.463837,136.196472 419.087616,128.157806 
	C418.652222,125.614632 419.296936,122.897636 419.345062,120.258316 
	C419.449829,114.516663 420.177795,108.676384 419.383057,103.055710 
	C418.350952,95.756378 418.551666,94.366707 425.535614,90.845848 
	C428.266113,89.469299 430.963379,88.026817 434.469818,86.200897 
	C429.497101,81.495140 425.019257,76.463882 419.681183,72.630508 
	C417.775208,71.261803 413.758484,72.609245 410.758972,73.068176 
	C408.889160,73.354271 407.146729,74.704773 405.297638,74.826721 
	C403.604156,74.938400 401.844177,74.041824 400.503906,73.691559 
	C405.176117,68.096138 409.644318,63.705299 412.931793,58.560055 
	C416.865021,52.404148 415.371613,49.138527 409.420502,45.893600 
	C406.660217,44.388508 402.941925,42.191544 402.367981,39.687164 
	C401.457733,35.715210 399.325012,35.479088 396.779205,36.114349 
	C393.259735,36.992588 389.662994,38.208965 386.580597,40.075371 
	C375.174011,46.982105 370.335876,59.114849 363.079346,70.340622 
	C351.580750,70.340622 339.517731,70.340622 327.435516,70.340622 
	C330.340302,57.828773 336.345947,46.715916 335.161804,33.872765 
	C334.789154,29.830889 333.607300,28.308954 329.849731,29.030500 
	C324.171722,30.120825 318.534180,31.421730 312.293396,32.758694 
	C312.939056,26.475712 308.070984,22.417118 303.603088,18.104702 
	C301.005371,15.597379 297.828064,14.963557 295.305756,17.399944 
	C292.452759,20.155807 289.317291,23.394503 288.193573,27.010290 
	C285.533844,35.568668 284.082062,44.496605 281.939270,53.225380 
	C281.363617,55.570225 280.610107,58.325172 278.970673,59.854912 
	C276.095093,62.538132 272.472015,64.420258 269.153748,66.643509 
	C262.976807,63.677658 261.430267,65.123924 260.747711,74.423271 
	C257.281708,75.608253 253.856628,76.779251 249.629196,77.996544 
M123.319237,161.000000 
	C126.828835,160.574585 130.338425,160.149155 133.754333,159.735092 
	C133.754333,141.292618 133.754333,123.190247 133.754333,106.005768 
	C115.708084,106.005768 97.906364,106.005768 80.104645,106.005768 
	C79.831795,105.555305 79.558937,105.104843 79.286087,104.654381 
	C95.954315,85.382065 112.622551,66.109741 129.115799,47.039738 
	C120.858658,46.517967 112.898582,46.352455 105.035202,45.393826 
	C100.175400,44.801365 96.025635,44.970642 92.620552,48.882778 
	C89.815895,52.105080 86.887604,55.219460 84.063080,58.424824 
	C69.309135,75.168068 54.589123,91.941231 39.814297,108.665993 
	C36.106152,112.863525 31.880743,116.651680 28.534012,121.109207 
	C24.064526,127.062157 26.244894,133.913269 26.954334,140.519211 
	C27.279287,143.545013 28.044628,144.835419 31.324135,143.357635 
	C32.731403,142.723511 34.588581,143.022629 36.242081,143.011932 
	C42.073772,142.974213 47.915562,143.201721 53.735817,142.937973 
	C70.373863,142.183960 87.003220,141.238052 103.935753,140.351913 
	C105.189217,147.732101 106.290596,154.216812 107.442673,161.000000 
	C112.409706,161.000000 117.384048,161.000000 123.319237,161.000000 
M185.571793,124.954613 
	C180.209244,129.921097 174.846680,134.887589 169.000000,140.302444 
	C169.000000,138.021713 168.933624,136.686234 169.011917,135.359283 
	C169.295074,130.559464 167.585785,125.293861 171.343948,121.225693 
	C176.489410,115.655769 181.635056,110.016510 187.342743,105.053421 
	C194.190460,99.099037 199.891937,93.448120 198.257980,82.935944 
	C197.171097,75.943375 198.545639,68.568207 198.845520,60.649940 
	C197.593338,60.649940 195.362000,60.779037 193.150269,60.625603 
	C186.661224,60.175453 180.170959,59.100822 173.697815,59.215034 
	C164.094315,59.384480 154.494644,60.250420 144.921387,61.126465 
	C143.523849,61.254345 141.258835,62.962635 141.128082,64.133209 
	C140.026749,73.992874 139.329086,83.897621 138.510010,93.788811 
	C139.074158,94.177544 139.638306,94.566284 140.202454,94.955017 
	C148.578827,88.834305 156.955200,82.713585 166.147034,75.997009 
	C167.649933,82.251068 167.358276,87.166046 164.479568,90.795822 
	C159.573471,96.981941 154.016479,102.731155 148.205917,108.092789 
	C144.329086,111.670113 142.988892,115.849854 143.057831,120.630600 
	C143.198334,130.374908 143.613617,140.116928 144.059097,149.853333 
	C144.125534,151.305191 144.970016,152.721481 145.402405,154.000000 
	C152.132202,154.000000 158.316116,154.259872 164.467972,153.927063 
	C170.648682,153.592667 176.796982,152.663788 182.960342,152.003250 
	C188.961304,151.360107 195.259171,153.342636 202.484406,150.342316 
	C199.930740,148.804092 198.671417,148.045517 197.315552,147.228806 
	C198.933624,147.039276 200.440674,146.862747 202.784332,146.588226 
	C202.784332,135.927582 202.784332,125.577477 202.784332,114.300629 
	C200.403305,115.288292 198.389725,115.803764 196.735947,116.874817 
	C193.081421,119.241653 189.607971,121.888115 185.571793,124.954613 
M217.136230,134.669342 
	C216.093613,135.321976 214.199722,135.914780 214.148956,136.637131 
	C213.857788,140.780014 213.796936,144.971176 214.146561,149.104630 
	C214.234726,150.146927 216.054153,151.782211 217.174438,151.866760 
	C221.479614,152.191635 225.836304,152.199966 230.150146,151.937790 
	C234.193848,151.692062 236.921463,150.010727 236.045624,145.119629 
	C235.332367,141.136398 235.023300,137.080795 234.543777,133.129654 
	C228.945923,133.753235 223.455246,134.364883 217.136230,134.669342 
M143.811646,35.002155 
	C142.290848,35.445702 140.770035,35.889248 139.001053,36.405178 
	C139.001053,41.575024 138.835983,46.727421 139.054474,51.863499 
	C139.222336,55.809326 140.569885,58.950878 145.591034,58.013626 
	C147.812744,57.598915 150.085327,57.442585 152.294418,56.977177 
	C158.265350,55.719219 159.362625,53.557243 157.241013,47.736874 
	C156.901672,46.805939 156.537949,45.616699 156.828629,44.766834 
	C158.665558,39.396069 155.944962,35.254749 150.220642,35.012268 
	C148.391266,34.934776 146.555832,35.000156 143.811646,35.002155 
M163.951111,35.577755 
	C160.363419,41.085064 161.445541,47.021400 163.452576,52.451889 
	C164.224289,54.539917 167.976212,56.597675 170.420212,56.658470 
	C172.385178,56.707344 175.051468,54.087021 176.261719,51.990253 
	C177.549789,49.758667 177.255936,46.675056 178.073898,44.097076 
	C179.375214,39.995762 178.050705,36.735287 174.866699,34.481171 
	C171.524689,32.115196 167.846268,32.268681 163.951111,35.577755 
M257.952118,49.574951 
	C258.554565,48.197533 259.157043,46.820114 259.759491,45.442696 
	C258.253296,44.971928 256.728577,44.552437 255.246262,44.015686 
	C253.820938,43.499565 252.258484,43.100170 251.089554,42.211250 
	C249.910553,41.314659 249.141251,39.879288 247.433411,37.720501 
	C246.337433,40.475365 245.761292,42.200783 244.975235,43.824581 
	C244.119049,45.593216 243.079407,47.274067 242.098114,48.980755 
	C241.439819,50.125671 240.743896,51.248947 240.064804,52.381908 
	C241.169724,52.920879 242.278580,53.451942 243.378708,54.000534 
	C245.454742,55.035789 247.604355,55.953171 249.573914,57.162891 
	C251.140961,58.125408 252.485535,59.450165 254.270309,60.889446 
	C255.513672,56.569790 256.441833,53.345192 257.952118,49.574951 
M183.001755,36.317619 
	C183.385391,37.366493 183.464890,38.762730 184.201874,39.408016 
	C189.081528,43.680485 188.908844,47.576954 184.000809,51.758942 
	C183.273575,52.378593 183.899719,54.586582 183.899719,56.059719 
	C184.443390,56.099987 184.987076,56.140255 185.530746,56.180523 
	C187.543533,53.844982 189.556320,51.509441 191.515900,49.235649 
	C194.007217,51.854858 196.582687,54.562546 199.158173,57.270233 
	C199.640610,57.037273 200.123047,56.804314 200.605484,56.571354 
	C200.506805,55.317463 200.906631,53.457409 200.232620,52.903126 
	C193.222656,47.138351 195.171951,41.303238 200.011230,35.020443 
	C193.459702,31.866137 195.259476,40.436558 191.071411,40.620888 
	C189.882004,39.120182 188.578552,37.007271 186.790283,35.451691 
	C186.083252,34.836647 184.297394,35.461777 183.001755,36.317619 
M229.389526,72.930031 
	C228.837357,72.605461 228.191238,72.376694 227.747528,71.941536 
	C223.295517,67.575150 220.412155,68.273254 219.305252,74.687645 
	C218.974442,76.604652 221.355225,79.137260 222.833618,81.136452 
	C223.332062,81.810524 225.680496,82.153618 225.826920,81.891182 
	C227.354950,79.152252 228.606628,76.259148 229.389526,72.930031 
z"/>
<path fill="#FFFEFE" opacity="1.000000" stroke="none" 
	d="
M250.030380,77.973396 
	C253.856628,76.779251 257.281708,75.608253 260.747711,74.423271 
	C261.430267,65.123924 262.976807,63.677658 269.153748,66.643509 
	C272.472015,64.420258 276.095093,62.538132 278.970673,59.854912 
	C280.610107,58.325172 281.363617,55.570225 281.939270,53.225380 
	C284.082062,44.496605 285.533844,35.568668 288.193573,27.010290 
	C289.317291,23.394503 292.452759,20.155807 295.305756,17.399944 
	C297.828064,14.963557 301.005371,15.597379 303.603088,18.104702 
	C308.070984,22.417118 312.939056,26.475712 312.293396,32.758694 
	C318.534180,31.421730 324.171722,30.120825 329.849731,29.030500 
	C333.607300,28.308954 334.789154,29.830889 335.161804,33.872765 
	C336.345947,46.715916 330.340302,57.828773 327.435516,70.340622 
	C339.517731,70.340622 351.580750,70.340622 363.079346,70.340622 
	C370.335876,59.114849 375.174011,46.982105 386.580597,40.075371 
	C389.662994,38.208965 393.259735,36.992588 396.779205,36.114349 
	C399.325012,35.479088 401.457733,35.715210 402.367981,39.687164 
	C402.941925,42.191544 406.660217,44.388508 409.420502,45.893600 
	C415.371613,49.138527 416.865021,52.404148 412.931793,58.560055 
	C409.644318,63.705299 405.176117,68.096138 400.503906,73.691559 
	C401.844177,74.041824 403.604156,74.938400 405.297638,74.826721 
	C407.146729,74.704773 408.889160,73.354271 410.758972,73.068176 
	C413.758484,72.609245 417.775208,71.261803 419.681183,72.630508 
	C425.019257,76.463882 429.497101,81.495140 434.469818,86.200897 
	C430.963379,88.026817 428.266113,89.469299 425.535614,90.845848 
	C418.551666,94.366707 418.350952,95.756378 419.383057,103.055710 
	C420.177795,108.676384 419.449829,114.516663 419.345062,120.258316 
	C419.296936,122.897636 418.652222,125.614632 419.087616,128.157806 
	C420.463837,136.196472 415.533752,140.620087 410.181763,145.005478 
	C406.132843,148.323090 402.102844,151.685318 398.310577,155.286880 
	C395.817596,157.654465 393.447571,158.255524 389.834473,158.248444 
	C378.354095,158.225922 366.871735,159.234238 355.389893,159.839279 
	C354.068634,159.908920 352.745697,159.994003 351.423553,159.994339 
	C318.760162,160.002960 286.096771,160.001083 253.433380,160.001083 
	C252.128952,160.001083 250.824524,160.001083 248.998917,160.001083 
	C248.998917,158.134476 249.034927,156.528793 248.993210,154.925125 
	C248.670120,142.508575 248.535385,130.082169 247.910904,117.680542 
	C247.608612,111.677551 246.378403,105.721291 245.506287,99.286156 
	C238.011139,98.065193 230.098602,102.964714 220.990555,99.927673 
	C228.487534,88.782333 239.968002,84.542686 250.030380,77.973396 
M302.889771,72.127083 
	C306.264618,72.024139 309.639435,71.921204 313.862518,71.957405 
	C321.947632,71.985634 321.916321,71.975487 324.446777,64.166885 
	C325.799286,59.993298 327.644165,55.944633 328.616302,51.690926 
	C329.914246,46.011692 330.579956,40.187973 331.517242,34.426311 
	C331.003967,33.915634 330.490692,33.404957 329.977417,32.894279 
	C324.557617,34.894081 319.061554,36.717278 313.765472,39.003662 
	C312.220276,39.670742 311.245209,41.658375 310.059875,43.019386 
	C310.059875,43.019386 310.087646,42.971489 309.535065,42.331078 
	C306.345978,44.871841 303.120819,47.368896 299.977783,49.965424 
	C296.712738,52.662762 293.653748,55.624012 290.278870,58.170689 
	C284.378632,62.623028 278.269897,66.798645 272.347321,71.222450 
	C271.550690,71.817451 271.327179,73.179657 270.412201,75.064095 
	C281.705353,73.946632 291.845276,72.943291 302.889771,72.127083 
M382.345428,146.998917 
	C385.525330,146.618683 388.705200,146.238434 392.410706,145.795349 
	C392.410706,126.984016 392.410706,108.563828 392.410706,89.914848 
	C389.899414,91.702087 387.684235,94.586037 385.251740,94.782761 
	C374.880676,95.621468 364.446655,95.857933 354.032990,95.929466 
	C347.517365,95.974228 340.995270,95.034554 334.479218,95.072433 
	C325.090790,95.127014 315.700104,95.566612 306.320312,96.039436 
	C300.413391,96.337196 294.524597,96.995926 288.627686,97.492729 
	C288.613892,97.606407 288.600128,97.720085 288.586365,97.833763 
	C290.567993,97.961258 292.549622,98.088745 294.531250,98.216240 
	C294.516449,98.400826 294.501648,98.585419 294.486847,98.770004 
	C281.066467,98.770004 267.646057,98.770004 253.793732,98.770004 
	C254.777832,116.245972 255.717239,132.928162 256.678528,149.998901 
	C258.592834,149.998901 259.885529,150.000290 261.178192,149.998688 
	C289.618652,149.963257 318.041473,150.355087 346.421143,147.210526 
	C357.939575,145.934219 369.717438,146.999237 382.345428,146.998917 
M399.001068,114.482437 
	C399.001068,124.151772 399.001068,133.821106 399.001068,143.490448 
	C399.543091,143.628204 400.085114,143.765961 400.627136,143.903717 
	C404.506134,140.231400 408.385132,136.559082 412.783447,132.395111 
	C412.783447,121.798340 412.783447,110.126373 412.783447,98.398491 
	C405.673706,100.343658 405.677551,100.341721 402.432251,93.912186 
	C401.823761,92.706642 401.170959,91.523491 400.069153,89.444000 
	C399.682404,98.151703 399.341736,105.821556 399.001068,114.482437 
M392.007324,71.514183 
	C393.799225,70.386101 395.807373,69.483627 397.304840,68.048317 
	C398.257812,67.134911 399.268066,64.837608 398.811188,64.209862 
	C397.967255,63.050217 396.120758,62.487968 394.590210,61.988403 
	C391.606384,61.014473 388.552399,60.255398 385.527466,59.407349 
	C385.597321,59.180752 385.667145,58.954159 385.737000,58.727562 
	C382.822754,58.356541 379.908508,57.985523 375.953400,57.481987 
	C374.207092,60.915340 371.897675,65.455727 368.882477,71.383751 
	C377.344025,71.383751 384.288849,71.383751 392.007324,71.514183 
M300.660126,21.778709 
	C296.050049,20.335722 294.093048,24.200714 293.175446,26.886171 
	C289.987793,36.215607 287.611450,45.822250 284.926514,55.323456 
	C285.569061,55.690266 286.211609,56.057076 286.854156,56.423885 
	C289.488464,54.356712 292.225983,52.406502 294.732422,50.194447 
	C298.319672,47.028515 301.434875,43.231895 305.330719,40.543823 
	C308.114746,38.622910 309.005798,36.442085 307.855621,33.943935 
	C305.995667,29.904385 303.406006,26.200806 300.660126,21.778709 
z"/>
<path fill="#FFFFFF" opacity="1.000000" stroke="none" 
	d="
M122.838814,161.000000 
	C117.384048,161.000000 112.409706,161.000000 107.442673,161.000000 
	C106.290596,154.216812 105.189217,147.732101 103.935753,140.351913 
	C87.003220,141.238052 70.373863,142.183960 53.735817,142.937973 
	C47.915562,143.201721 42.073772,142.974213 36.242081,143.011932 
	C34.588581,143.022629 32.731403,142.723511 31.324135,143.357635 
	C28.044628,144.835419 27.279287,143.545013 26.954334,140.519211 
	C26.244894,133.913269 24.064526,127.062157 28.534012,121.109207 
	C31.880743,116.651680 36.106152,112.863525 39.814297,108.665993 
	C54.589123,91.941231 69.309135,75.168068 84.063080,58.424824 
	C86.887604,55.219460 89.815895,52.105080 92.620552,48.882778 
	C96.025635,44.970642 100.175400,44.801365 105.035202,45.393826 
	C112.898582,46.352455 120.858658,46.517967 129.115799,47.039738 
	C112.622551,66.109741 95.954315,85.382065 79.286087,104.654381 
	C79.558937,105.104843 79.831795,105.555305 80.104645,106.005768 
	C97.906364,106.005768 115.708084,106.005768 133.754333,106.005768 
	C133.754333,123.190247 133.754333,141.292618 133.754333,159.735092 
	C130.338425,160.149155 126.828835,160.574585 122.838814,161.000000 
z"/>
<path fill="#FFFFFF" opacity="1.000000" stroke="none" 
	d="
M185.816223,124.687553 
	C189.607971,121.888115 193.081421,119.241653 196.735947,116.874817 
	C198.389725,115.803764 200.403305,115.288292 202.784332,114.300629 
	C202.784332,125.577477 202.784332,135.927582 202.784332,146.588226 
	C200.440674,146.862747 198.933624,147.039276 197.315552,147.228806 
	C198.671417,148.045517 199.930740,148.804092 202.484406,150.342316 
	C195.259171,153.342636 188.961304,151.360107 182.960342,152.003250 
	C176.796982,152.663788 170.648682,153.592667 164.467972,153.927063 
	C158.316116,154.259872 152.132202,154.000000 145.402405,154.000000 
	C144.970016,152.721481 144.125534,151.305191 144.059097,149.853333 
	C143.613617,140.116928 143.198334,130.374908 143.057831,120.630600 
	C142.988892,115.849854 144.329086,111.670113 148.205917,108.092789 
	C154.016479,102.731155 159.573471,96.981941 164.479568,90.795822 
	C167.358276,87.166046 167.649933,82.251068 166.147034,75.997009 
	C156.955200,82.713585 148.578827,88.834305 140.202454,94.955017 
	C139.638306,94.566284 139.074158,94.177544 138.510010,93.788811 
	C139.329086,83.897621 140.026749,73.992874 141.128082,64.133209 
	C141.258835,62.962635 143.523849,61.254345 144.921387,61.126465 
	C154.494644,60.250420 164.094315,59.384480 173.697815,59.215034 
	C180.170959,59.100822 186.661224,60.175453 193.150269,60.625603 
	C195.362000,60.779037 197.593338,60.649940 198.845520,60.649940 
	C198.545639,68.568207 197.171097,75.943375 198.257980,82.935944 
	C199.891937,93.448120 194.190460,99.099037 187.342743,105.053421 
	C181.635056,110.016510 176.489410,115.655769 171.343948,121.225693 
	C167.585785,125.293861 169.295074,130.559464 169.011917,135.359283 
	C168.933624,136.686234 169.000000,138.021713 169.000000,140.302444 
	C174.846680,134.887589 180.209244,129.921097 185.816223,124.687553 
z"/>
<path fill="#FFFFFF" opacity="1.000000" stroke="none" 
	d="
M217.550415,134.822937 
	C223.455246,134.364883 228.945923,133.753235 234.543777,133.129654 
	C235.023300,137.080795 235.332367,141.136398 236.045624,145.119629 
	C236.921463,150.010727 234.193848,151.692062 230.150146,151.937790 
	C225.836304,152.199966 221.479614,152.191635 217.174438,151.866760 
	C216.054153,151.782211 214.234726,150.146927 214.146561,149.104630 
	C213.796936,144.971176 213.857788,140.780014 214.148956,136.637131 
	C214.199722,135.914780 216.093613,135.321976 217.550415,134.822937 
z"/>
<path fill="#FFFFFF" opacity="1.000000" stroke="none" 
	d="
M144.267410,35.001160 
	C146.555832,35.000156 148.391266,34.934776 150.220642,35.012268 
	C155.944962,35.254749 158.665558,39.396069 156.828629,44.766834 
	C156.537949,45.616699 156.901672,46.805939 157.241013,47.736874 
	C159.362625,53.557243 158.265350,55.719219 152.294418,56.977177 
	C150.085327,57.442585 147.812744,57.598915 145.591034,58.013626 
	C140.569885,58.950878 139.222336,55.809326 139.054474,51.863499 
	C138.835983,46.727421 139.001053,41.575024 139.001053,36.405178 
	C140.770035,35.889248 142.290848,35.445702 144.267410,35.001160 
M148.263489,53.966660 
	C149.307510,53.603668 150.493408,53.440418 151.358658,52.825760 
	C152.378098,52.101562 153.119812,50.986397 153.981949,50.040760 
	C152.725296,49.337730 151.500336,48.566044 150.196793,47.964653 
	C149.657135,47.715683 148.928650,47.705769 148.321686,47.805023 
	C146.555389,48.093876 144.807114,48.492813 143.051758,48.848576 
	C144.341599,50.714558 143.376129,54.505886 148.263489,53.966660 
M152.956131,41.902256 
	C150.206070,40.964920 147.487869,39.885956 144.669601,39.251808 
	C144.273346,39.162647 143.387436,41.249615 142.476471,42.741524 
	C146.480698,42.741524 149.613571,42.741524 152.956131,41.902256 
z"/>
<path fill="#FFFFFF" opacity="1.000000" stroke="none" 
	d="
M164.236572,35.283688 
	C167.846268,32.268681 171.524689,32.115196 174.866699,34.481171 
	C178.050705,36.735287 179.375214,39.995762 178.073898,44.097076 
	C177.255936,46.675056 177.549789,49.758667 176.261719,51.990253 
	C175.051468,54.087021 172.385178,56.707344 170.420212,56.658470 
	C167.976212,56.597675 164.224289,54.539917 163.452576,52.451889 
	C161.445541,47.021400 160.363419,41.085064 164.236572,35.283688 
M173.999802,43.543564 
	C173.559143,41.712147 173.118500,39.880726 172.702377,38.151272 
	C166.114868,37.900543 165.268173,38.370274 166.144989,43.560997 
	C166.641434,46.499939 168.318665,51.384140 169.941559,51.587833 
	C174.902985,52.210564 172.373657,46.804367 173.999802,43.543564 
z"/>
<path fill="#FFFB00" opacity="1.000000" stroke="none" 
	d="
M257.661041,49.847775 
	C256.441833,53.345192 255.513672,56.569790 254.270309,60.889446 
	C252.485535,59.450165 251.140961,58.125408 249.573914,57.162891 
	C247.604355,55.953171 245.454742,55.035789 243.378708,54.000534 
	C242.278580,53.451942 241.169724,52.920879 240.064804,52.381908 
	C240.743896,51.248947 241.439819,50.125671 242.098114,48.980755 
	C243.079407,47.274067 244.119049,45.593216 244.975235,43.824581 
	C245.761292,42.200783 246.337433,40.475365 247.433411,37.720501 
	C249.141251,39.879288 249.910553,41.314659 251.089554,42.211250 
	C252.258484,43.100170 253.820938,43.499565 255.246262,44.015686 
	C256.728577,44.552437 258.253296,44.971928 259.759491,45.442696 
	C259.157043,46.820114 258.554565,48.197533 257.661041,49.847775 
z"/>
<path fill="#FFFFFF" opacity="1.000000" stroke="none" 
	d="
M183.002258,35.919922 
	C184.297394,35.461777 186.083252,34.836647 186.790283,35.451691 
	C188.578552,37.007271 189.882004,39.120182 191.071411,40.620888 
	C195.259476,40.436558 193.459702,31.866137 200.011230,35.020443 
	C195.171951,41.303238 193.222656,47.138351 200.232620,52.903126 
	C200.906631,53.457409 200.506805,55.317463 200.605484,56.571354 
	C200.123047,56.804314 199.640610,57.037273 199.158173,57.270233 
	C196.582687,54.562546 194.007217,51.854858 191.515900,49.235649 
	C189.556320,51.509441 187.543533,53.844982 185.530746,56.180523 
	C184.987076,56.140255 184.443390,56.099987 183.899719,56.059719 
	C183.899719,54.586582 183.273575,52.378593 184.000809,51.758942 
	C188.908844,47.576954 189.081528,43.680485 184.201874,39.408016 
	C183.464890,38.762730 183.385391,37.366493 183.002258,35.919922 
z"/>
<path fill="#FFFB00" opacity="1.000000" stroke="none" 
	d="
M229.662216,73.169403 
	C228.606628,76.259148 227.354950,79.152252 225.826920,81.891182 
	C225.680496,82.153618 223.332062,81.810524 222.833618,81.136452 
	C221.355225,79.137260 218.974442,76.604652 219.305252,74.687645 
	C220.412155,68.273254 223.295517,67.575150 227.747528,71.941536 
	C228.191238,72.376694 228.837357,72.605461 229.662216,73.169403 
z"/>
<path fill="#000000" opacity="1.000000" stroke="none" 
	d="
M381.861328,146.998917 
	C369.717438,146.999237 357.939575,145.934219 346.421143,147.210526 
	C318.041473,150.355087 289.618652,149.963257 261.178192,149.998688 
	C259.885529,150.000290 258.592834,149.998901 256.678528,149.998901 
	C255.717239,132.928162 254.777832,116.245972 253.793732,98.770004 
	C267.646057,98.770004 281.066467,98.770004 294.486847,98.770004 
	C294.501648,98.585419 294.516449,98.400826 294.531250,98.216240 
	C292.549622,98.088745 290.567993,97.961258 288.586365,97.833763 
	C288.600128,97.720085 288.613892,97.606407 288.627686,97.492729 
	C294.524597,96.995926 300.413391,96.337196 306.320312,96.039436 
	C315.700104,95.566612 325.090790,95.127014 334.479218,95.072433 
	C340.995270,95.034554 347.517365,95.974228 354.032990,95.929466 
	C364.446655,95.857933 374.880676,95.621468 385.251740,94.782761 
	C387.684235,94.586037 389.899414,91.702087 392.410706,89.914848 
	C392.410706,108.563828 392.410706,126.984016 392.410706,145.795349 
	C388.705200,146.238434 385.525330,146.618683 381.861328,146.998917 
M363.402405,117.899208 
	C362.511017,117.599731 361.299561,116.780106 360.786621,117.095711 
	C359.064301,118.155487 357.034576,119.348778 356.217712,121.024788 
	C355.671783,122.144920 357.040009,125.574097 357.459106,125.558014 
	C359.651215,125.473900 362.360748,125.202919 363.811462,123.844604 
	C364.948090,122.780426 368.003052,120.161255 363.402405,117.899208 
M282.004791,125.467041 
	C283.865814,126.571869 285.715637,128.468872 287.591888,128.495377 
	C288.788208,128.512268 291.320343,125.301720 290.981140,124.338127 
	C290.189301,122.088547 288.026184,120.321640 285.750366,117.543663 
	C284.071625,120.767784 283.053162,122.723778 282.004791,125.467041 
M321.106232,126.577263 
	C329.074219,128.023346 329.514221,127.802750 331.127075,120.823273 
	C327.780762,120.460152 324.531372,120.107559 320.976562,119.721817 
	C320.976562,122.162033 320.976562,123.967140 321.106232,126.577263 
z"/>
<path fill="#FD8D03" opacity="1.000000" stroke="none" 
	d="
M310.008789,43.040699 
	C311.245209,41.658375 312.220276,39.670742 313.765472,39.003662 
	C319.061554,36.717278 324.557617,34.894081 329.977417,32.894279 
	C330.490692,33.404957 331.003967,33.915634 331.517242,34.426311 
	C330.579956,40.187973 329.914246,46.011692 328.616302,51.690926 
	C327.644165,55.944633 325.799286,59.993298 324.446777,64.166885 
	C321.916321,71.975487 321.947632,71.985634 313.431030,71.516083 
	C311.955109,66.848190 308.903046,66.734581 305.473572,67.406929 
	C304.167542,67.662979 302.865356,67.938408 301.746948,67.916687 
	C302.322357,66.187614 302.712219,64.746834 303.102112,63.306053 
	C302.707092,63.065739 302.312103,62.825420 301.917084,62.585106 
	C299.938416,64.456192 297.959747,66.327278 295.483154,68.669212 
	C294.151917,66.516418 293.102264,64.819008 291.158997,61.676476 
	C290.436646,63.881443 289.492279,65.205269 289.754242,66.216667 
	C291.485657,72.901711 295.157654,73.587013 301.430237,68.911041 
	C301.754150,70.182480 301.869690,71.061211 301.985229,71.939941 
	C291.845276,72.943291 281.705353,73.946632 270.412201,75.064095 
	C271.327179,73.179657 271.550690,71.817451 272.347321,71.222450 
	C278.269897,66.798645 284.378632,62.623028 290.278870,58.170689 
	C293.653748,55.624012 296.712738,52.662762 299.977783,49.965424 
	C303.120819,47.368896 306.345978,44.871841 309.772705,43.000282 
	C307.756195,45.600780 305.373383,47.403191 303.278992,49.494453 
	C300.354370,52.414742 302.327515,54.586342 304.805939,56.355366 
	C307.433319,58.230736 310.595886,61.199627 313.346527,57.494217 
	C316.660583,53.029869 319.107758,47.891247 321.619263,42.888409 
	C322.112152,41.906593 321.615540,39.699345 320.784485,39.008305 
	C320.099335,38.438576 318.139832,39.029484 316.929688,39.541988 
	C314.554749,40.547787 312.308380,41.857021 310.008789,43.040699 
z"/>
<path fill="#000000" opacity="1.000000" stroke="none" 
	d="
M399.001068,113.986923 
	C399.341736,105.821556 399.682404,98.151703 400.069153,89.444000 
	C401.170959,91.523491 401.823761,92.706642 402.432251,93.912186 
	C405.677551,100.341721 405.673706,100.343658 412.783447,98.398491 
	C412.783447,110.126373 412.783447,121.798340 412.783447,132.395111 
	C408.385132,136.559082 404.506134,140.231400 400.627136,143.903717 
	C400.085114,143.765961 399.543091,143.628204 399.001068,143.490448 
	C399.001068,133.821106 399.001068,124.151772 399.001068,113.986923 
z"/>
<path fill="#FD8E04" opacity="1.000000" stroke="none" 
	d="
M391.620483,71.448967 
	C384.288849,71.383751 377.344025,71.383751 368.882477,71.383751 
	C371.897675,65.455727 374.207092,60.915340 375.953400,57.481987 
	C379.908508,57.985523 382.822754,58.356541 385.737000,58.727562 
	C385.667145,58.954159 385.597321,59.180752 385.527466,59.407349 
	C388.552399,60.255398 391.606384,61.014473 394.590210,61.988403 
	C396.120758,62.487968 397.967255,63.050217 398.811188,64.209862 
	C399.268066,64.837608 398.257812,67.134911 397.304840,68.048317 
	C395.807373,69.483627 393.799225,70.386101 391.620483,71.448967 
z"/>
<path fill="#FB8E07" opacity="1.000000" stroke="none" 
	d="
M300.892303,22.067030 
	C303.406006,26.200806 305.995667,29.904385 307.855621,33.943935 
	C309.005798,36.442085 308.114746,38.622910 305.330719,40.543823 
	C301.434875,43.231895 298.319672,47.028515 294.732422,50.194447 
	C292.225983,52.406502 289.488464,54.356712 286.854156,56.423885 
	C286.211609,56.057076 285.569061,55.690266 284.926514,55.323456 
	C287.611450,45.822250 289.987793,36.215607 293.175446,26.886171 
	C294.093048,24.200714 296.050049,20.335722 300.892303,22.067030 
M292.635468,33.284756 
	C291.560425,36.550594 290.351074,39.781574 289.489075,43.102695 
	C289.216705,44.151978 289.549194,45.694336 290.208191,46.542049 
	C290.727661,47.210327 292.289703,47.594753 293.187286,47.354088 
	C297.820709,46.111786 302.222382,38.223785 300.571289,33.682198 
	C299.920197,31.891228 297.952942,30.578718 296.585052,29.048334 
	C295.371124,30.225674 294.157227,31.403015 292.635468,33.284756 
z"/>
<path fill="#FE5900" opacity="1.000000" stroke="none" 
	d="
M301.561401,68.204994 
	C302.865356,67.938408 304.167542,67.662979 305.473572,67.406929 
	C308.903046,66.734581 311.955109,66.848190 313.006897,71.446503 
	C309.639435,71.921204 306.264618,72.024139 302.437500,72.033508 
	C301.869690,71.061211 301.754150,70.182480 301.566895,68.888817 
	C301.495178,68.473885 301.561401,68.204994 301.561401,68.204994 
z"/>
<path fill="#000000" opacity="1.000000" stroke="none" 
	d="
M147.855408,53.982040 
	C143.376129,54.505886 144.341599,50.714558 143.051758,48.848576 
	C144.807114,48.492813 146.555389,48.093876 148.321686,47.805023 
	C148.928650,47.705769 149.657135,47.715683 150.196793,47.964653 
	C151.500336,48.566044 152.725296,49.337730 153.981949,50.040756 
	C153.119812,50.986397 152.378098,52.101562 151.358658,52.825760 
	C150.493408,53.440418 149.307510,53.603668 147.855408,53.982040 
z"/>
<path fill="#000000" opacity="1.000000" stroke="none" 
	d="
M152.851288,42.321892 
	C149.613571,42.741524 146.480698,42.741524 142.476471,42.741524 
	C143.387436,41.249615 144.273346,39.162647 144.669601,39.251808 
	C147.487869,39.885956 150.206070,40.964920 152.851288,42.321892 
z"/>
<path fill="#000000" opacity="1.000000" stroke="none" 
	d="
M173.999817,43.980087 
	C172.373657,46.804367 174.902985,52.210564 169.941559,51.587833 
	C168.318665,51.384140 166.641434,46.499939 166.144989,43.560997 
	C165.268173,38.370274 166.114868,37.900543 172.702377,38.151272 
	C173.118500,39.880726 173.559143,41.712147 173.999817,43.980087 
z"/>
<path fill="#FFFFFF" opacity="1.000000" stroke="none" 
	d="
M363.800720,117.959900 
	C368.003052,120.161255 364.948090,122.780426 363.811462,123.844604 
	C362.360748,125.202919 359.651215,125.473900 357.459106,125.558014 
	C357.040009,125.574097 355.671783,122.144920 356.217712,121.024788 
	C357.034576,119.348778 359.064301,118.155487 360.786621,117.095711 
	C361.299561,116.780106 362.511017,117.599731 363.800720,117.959900 
z"/>
<path fill="#FFFFFF" opacity="1.000000" stroke="none" 
	d="
M282.019775,125.073410 
	C283.053162,122.723778 284.071625,120.767784 285.750366,117.543663 
	C288.026184,120.321640 290.189301,122.088547 290.981140,124.338127 
	C291.320343,125.301720 288.788208,128.512268 287.591888,128.495377 
	C285.715637,128.468872 283.865814,126.571869 282.019775,125.073410 
z"/>
<path fill="#FFFFFF" opacity="1.000000" stroke="none" 
	d="
M321.041382,126.174759 
	C320.976562,123.967140 320.976562,122.162033 320.976562,119.721817 
	C324.531372,120.107559 327.780762,120.460152 331.127075,120.823273 
	C329.514221,127.802750 329.074219,128.023346 321.041382,126.174759 
z"/>
<path fill="#FFFBF7" opacity="1.000000" stroke="none" 
	d="
M310.034332,43.030037 
	C312.308380,41.857021 314.554749,40.547787 316.929688,39.541988 
	C318.139832,39.029484 320.099335,38.438576 320.784485,39.008305 
	C321.615540,39.699345 322.112152,41.906593 321.619263,42.888409 
	C319.107758,47.891247 316.660583,53.029869 313.346527,57.494217 
	C310.595886,61.199627 307.433319,58.230736 304.805939,56.355366 
	C302.327515,54.586342 300.354370,52.414742 303.278992,49.494453 
	C305.373383,47.403191 307.756195,45.600780 310.048981,43.320488 
	C310.087646,42.971489 310.059875,43.019386 310.034332,43.030037 
z"/>
<path fill="#FBF9F7" opacity="1.000000" stroke="none" 
	d="
M301.358521,68.496109 
	C295.157654,73.587013 291.485657,72.901711 289.754242,66.216667 
	C289.492279,65.205269 290.436646,63.881443 291.158997,61.676476 
	C293.102264,64.819008 294.151917,66.516418 295.483154,68.669212 
	C297.959747,66.327278 299.938416,64.456192 301.917084,62.585106 
	C302.312103,62.825420 302.707092,63.065739 303.102112,63.306053 
	C302.712219,64.746834 302.322357,66.187614 301.746948,67.916687 
	C301.561401,68.204994 301.495178,68.473885 301.358521,68.496109 
z"/>
<path fill="#FFFBF5" opacity="1.000000" stroke="none" 
	d="
M292.789368,32.932556 
	C294.157227,31.403015 295.371124,30.225674 296.585052,29.048332 
	C297.952942,30.578718 299.920197,31.891228 300.571289,33.682198 
	C302.222382,38.223785 297.820709,46.111786 293.187286,47.354088 
	C292.289703,47.594753 290.727661,47.210327 290.208191,46.542049 
	C289.549194,45.694336 289.216705,44.151978 289.489075,43.102695 
	C290.351074,39.781574 291.560425,36.550594 292.789368,32.932556 
z"/>
</svg>