<svg width="18" height="18" viewBox="0 0 18 18" fill="none" xmlns="http://www.w3.org/2000/svg">
<g id="Bookmark icon">
<g id="Union">
<mask id="path-1-inside-1_37_847" fill="white">
<path fill-rule="evenodd" clip-rule="evenodd" d="M5.38499 1.4325H12.615C14.2125 1.4325 15.51 2.7375 15.5175 4.3275V14.895C15.5175 16.2525 14.55 16.8225 13.365 16.1625L9.70499 14.13C9.32249 13.9125 8.69249 13.9125 8.30249 14.13L4.64249 16.1625C3.45749 16.815 2.48999 16.245 2.48999 14.895V4.3275C2.48999 2.7375 3.79499 1.4325 5.38499 1.4325Z"/>
</mask>
<path fill-rule="evenodd" clip-rule="evenodd" d="M5.38499 1.4325H12.615C14.2125 1.4325 15.51 2.7375 15.5175 4.3275V14.895C15.5175 16.2525 14.55 16.8225 13.365 16.1625L9.70499 14.13C9.32249 13.9125 8.69249 13.9125 8.30249 14.13L4.64249 16.1625C3.45749 16.815 2.48999 16.245 2.48999 14.895V4.3275C2.48999 2.7375 3.79499 1.4325 5.38499 1.4325Z" fill="#FF9548"/>
<path d="M15.5175 4.3275H16.5175L16.5175 4.32278L15.5175 4.3275ZM13.365 16.1625L13.8516 15.2889L13.8505 15.2883L13.365 16.1625ZM9.70499 14.13L9.21066 14.9993L9.2195 15.0042L9.70499 14.13ZM8.30249 14.13L8.78798 15.0042L8.78956 15.0034L8.30249 14.13ZM4.64249 16.1625L5.12484 17.0385L5.12798 17.0367L4.64249 16.1625ZM12.615 0.432495H5.38499V2.4325H12.615V0.432495ZM16.5175 4.32278C16.5074 2.18678 14.7674 0.432495 12.615 0.432495V2.4325C13.6576 2.4325 14.5126 3.28821 14.5175 4.33221L16.5175 4.32278ZM16.5175 14.895V4.3275H14.5175V14.895H16.5175ZM12.8784 17.0361C13.6623 17.4727 14.5961 17.6164 15.3931 17.147C16.1896 16.6779 16.5175 15.792 16.5175 14.895H14.5175C14.5175 15.1189 14.4773 15.2593 14.4416 15.3356C14.4083 15.4071 14.3803 15.4224 14.3781 15.4236C14.376 15.4249 14.3495 15.4418 14.2716 15.4363C14.1883 15.4304 14.0467 15.3976 13.8516 15.2889L12.8784 17.0361ZM9.2195 15.0042L12.8795 17.0367L13.8505 15.2883L10.1905 13.2558L9.2195 15.0042ZM8.78956 15.0034C8.78865 15.0039 8.79342 15.0011 8.80501 14.9969C8.8165 14.9926 8.83266 14.9876 8.85354 14.9829C8.89635 14.9732 8.94918 14.9669 9.00655 14.9669C9.06398 14.9669 9.11572 14.9732 9.1565 14.9825C9.19873 14.9922 9.21493 15.0017 9.21069 14.9993L10.1993 13.2607C9.81945 13.0447 9.38433 12.9669 9.00655 12.9669C8.62778 12.9669 8.19477 13.0451 7.81542 13.2566L8.78956 15.0034ZM5.12798 17.0367L8.78798 15.0042L7.817 13.2558L4.157 15.2883L5.12798 17.0367ZM1.48999 14.895C1.48999 15.791 1.81964 16.6733 2.61439 17.1414C3.40837 17.609 4.33997 17.4707 5.12483 17.0385L4.16015 15.2865C3.96534 15.3938 3.82359 15.4262 3.73945 15.4318C3.6606 15.4371 3.63269 15.42 3.62934 15.418C3.62607 15.4161 3.59817 15.4004 3.5652 15.33C3.52993 15.2548 3.48999 15.1163 3.48999 14.895H1.48999ZM1.48999 4.3275V14.895H3.48999V4.3275H1.48999ZM5.38499 0.432495C3.24271 0.432495 1.48999 2.18521 1.48999 4.3275H3.48999C3.48999 3.28978 4.34728 2.4325 5.38499 2.4325V0.432495Z" fill="black" mask="url(#path-1-inside-1_37_847)"/>
</g>
</g>
</svg>
